# xmcd
#
# Track frame offsets:
# 150
# 15163
# 32177
# 49048
# 63315
# 77158
# 97240
# 114208
# 128714
# 144236
# 162638
# 182816
#
# Disc length: 2696 seconds
#
#
# Revision: 0
# Processed by: cddbd v1.5.2PL0 Copyright (c) Steve Scherf et al.
# Submitted via: FreeRIP 2.951 
#
DISCID=990a860c
DTITLE=Higino e Gabriel - Eternamente
DYEAR=2006
DGENRE=sertanjeo
TTITLE0=você não quis
TTITLE1=é só você que eu amo
TTITLE2=ela ficou desconfiada
TTITLE3=coração escravo
TTITLE4=festa de peão
TTITLE5=pra sempre mãe
TTITLE6=coração machucado
TTITLE7=eu nasci pra te amar
TTITLE8=não desligue
TTITLE9=viver ao seu lado
TTITLE10=eternamente
TTITLE11=grande deus
EXTD=
EXTT0=
EXTT1=
EXTT2=
EXTT3=
EXTT4=
EXTT5=
EXTT6=
EXTT7=
EXTT8=
EXTT9=
EXTT10=
EXTT11=
PLAYORDER=
